<?xml version="1.0" encoding="UTF-8" standalone="no"?>
<!-- Created with Inkscape (http://www.inkscape.org/) -->

<svg
   width="512"
   height="512"
   viewBox="0 0 135.46667 135.46667"
   version="1.1"
   id="svg5"
   inkscape:version="1.2.1 (9c6d41e4, 2022-07-14)"
   sodipodi:docname="kassert-logo.svg"
   xmlns:inkscape="http://www.inkscape.org/namespaces/inkscape"
   xmlns:sodipodi="http://sodipodi.sourceforge.net/DTD/sodipodi-0.dtd"
   xmlns="http://www.w3.org/2000/svg"
   xmlns:svg="http://www.w3.org/2000/svg">
  <sodipodi:namedview
     id="namedview7"
     pagecolor="#ffffff"
     bordercolor="#666666"
     borderopacity="1.0"
     inkscape:showpageshadow="2"
     inkscape:pageopacity="0.0"
     inkscape:pagecheckerboard="0"
     inkscape:deskcolor="#d1d1d1"
     inkscape:document-units="mm"
     showgrid="false"
     inkscape:zoom="1.0744315"
     inkscape:cx="473.73891"
     inkscape:cy="17.683771"
     inkscape:window-width="3008"
     inkscape:window-height="1692"
     inkscape:window-x="0"
     inkscape:window-y="0"
     inkscape:window-maximized="0"
     inkscape:current-layer="layer1" />
  <defs
     id="defs2" />
  <g
     inkscape:label="Layer 1"
     inkscape:groupmode="layer"
     id="layer1">
    <g
       aria-label="K"
       id="text1863"
       style="font-size:163.713px;line-height:1.25;font-family:'Loved by the King';-inkscape-font-specification:'Loved by the King, Normal';fill:#11694f;stroke-width:4.09284"
       transform="translate(-53.027224,60.012983)" />
    <g
       aria-label="A"
       id="text1921"
       style="font-size:83.1548px;line-height:1.25;font-family:'Loved by the King';-inkscape-font-specification:'Loved by the King, Normal';fill:#11694f;stroke-width:2.07887" />
    <g
       id="g2801"
       transform="matrix(0.86824728,0,0,0.86824728,9.1680681,-2.0664348)">
      <path
         sodipodi:type="star"
         style="fill:#ffaaaa;stroke-width:0.499999;stroke-linecap:round;stroke-linejoin:round"
         id="path1955"
         inkscape:flatsided="true"
         sodipodi:sides="6"
         sodipodi:cx="30.14537"
         sodipodi:cy="14.186057"
         sodipodi:r1="50.439163"
         sodipodi:r2="43.681595"
         sodipodi:arg1="1.0471976"
         sodipodi:arg2="1.5707963"
         inkscape:rounded="0"
         inkscape:randomized="0"
         d="m 55.36495,57.867655 -50.4391633,-2e-6 -25.2195797,-43.681598 25.219584,-43.681596 50.439163,3e-6 25.21958,43.681598 z"
         transform="matrix(1.3113983,0,0,1.3113983,31.904912,50.98194)" />
      <path
         sodipodi:type="star"
         style="fill:#8be3c9;stroke-width:0.499999;stroke-linecap:round;stroke-linejoin:round"
         id="path904"
         inkscape:flatsided="true"
         sodipodi:sides="6"
         sodipodi:cx="30.14537"
         sodipodi:cy="14.186057"
         sodipodi:r1="50.439163"
         sodipodi:r2="43.681595"
         sodipodi:arg1="1.0471976"
         sodipodi:arg2="1.5707963"
         inkscape:rounded="0"
         inkscape:randomized="0"
         d="m 55.36495,57.867655 -50.4391633,-2e-6 -25.2195797,-43.681598 25.219584,-43.681596 50.439163,3e-6 25.21958,43.681598 z"
         transform="matrix(1.3113983,0,0,1.3113983,28.200746,49.129762)" />
      <path
         id="path1927"
         style="font-size:83.1548px;line-height:1.25;font-family:'PT Mono';-inkscape-font-specification:'PT Mono, Normal';fill:#ffffff;stroke-width:2.07887"
         d="M 88.582001,38.629167 69.1238,96.8375 h 6.818706 l 2.661336,-8.066174 2.660819,-8.066175 h 0.01189 L 87.792407,61.039168 92.158,47.360417 h 0.997877 l 4.282393,13.678751 8.93898,27.732158 2.74402,8.066174 h 7.2347 L 96.731336,38.629167 Z" />
      <g
         id="g1013"
         transform="matrix(0.71414193,0,0,1.0474786,20.154485,-6.2992679)"
         style="fill:#a8cbfe;stroke:#106e7d">
        <path
           style="fill:#a8cbfe;stroke:#106e7d;stroke-width:7.3;stroke-linecap:round;stroke-linejoin:miter;stroke-dasharray:none;stroke-opacity:1"
           d="m 34.705173,60.290738 c 63.837253,0 63.837253,0 63.837253,0"
           id="path1007" />
        <path
           style="fill:#a8cbfe;stroke:#106e7d;stroke-width:7.3;stroke-linecap:round;stroke-linejoin:miter;stroke-dasharray:none;stroke-opacity:1"
           d="m 34.705173,81.063178 c 63.837253,0 63.837253,0 63.837253,0"
           id="path1009" />
      </g>
      <path
         id="path1923"
         style="font-size:163.713px;line-height:1.25;font-family:'PT Mono';-inkscape-font-specification:'PT Mono, Normal';fill:#ffffff;stroke-width:2.07888"
         d="m 30.455515,64.57332 c -0.03468,0.0518 -0.06889,0.103574 -0.101803,0.155546 -0.03292,0.05197 -0.06449,0.104427 -0.0956,0.156579 -0.03111,0.05215 -0.0617,0.104241 -0.09095,0.15658 -0.02925,0.05234 -0.05741,0.104567 -0.08475,0.157096 -0.02734,0.05253 -0.05369,0.105404 -0.07906,0.15813 -0.02538,0.05273 -0.0495,0.10572 -0.07286,0.158647 -0.02336,0.05293 -0.04588,0.105513 -0.06718,0.158646 -0.0213,0.05313 -0.04179,0.106336 -0.06098,0.159681 -0.01919,0.05334 -0.03724,0.107152 -0.05426,0.160713 -0.01702,0.05356 -0.03274,0.106931 -0.04754,0.160714 -0.0148,0.05378 -0.0288,0.107738 -0.04134,0.161747 -0.01254,0.05401 -0.02389,0.108023 -0.03411,0.162264 -0.01022,0.05424 -0.01902,0.10882 -0.02687,0.163298 -0.0079,0.05448 -0.01472,0.109094 -0.02015,0.163814 -0.0054,0.05472 -0.0094,0.109364 -0.0124,0.164331 -0.003,0.05497 -0.0047,0.110145 -0.0052,0.165365 -4.39e-4,0.05522 4.51e-4,0.110921 0.0026,0.166398 0.0021,0.05548 0.0056,0.110659 0.01034,0.166398 0.0048,0.05574 0.01066,0.111942 0.01809,0.167948 0.0074,0.05601 0.0162,0.112187 0.02636,0.168465 0.01016,0.05628 0.02169,0.112426 0.03462,0.168982 0.01293,0.05656 0.02765,0.113177 0.04341,0.170016 0.01576,0.05684 0.03252,0.113922 0.05116,0.171049 0.01864,0.05713 0.0389,0.114663 0.06046,0.172082 0.02156,0.05742 0.0447,0.114882 0.06925,0.1726 0.02454,0.05772 0.05046,0.115612 0.07803,0.173632 0.02757,0.05802 0.05668,0.115821 0.08733,0.17415 0.03066,0.05833 0.06285,0.117058 0.09663,0.1757 0.03379,0.05864 0.06897,0.117256 0.105937,0.176217 0.03697,0.05896 0.07555,0.118483 0.115755,0.177766 0.04021,0.05928 0.08208,0.118672 0.125574,0.178284 0.04349,0.05961 0.08908,0.119372 0.135909,0.179317 L 50.994834,96.8375 h 8.73125 L 36.608628,66.319466 57.147942,38.629167 h -7.982975 z" />
      <path
         id="path1937"
         style="font-size:163.713px;line-height:1.25;font-family:'PT Mono';-inkscape-font-specification:'PT Mono, Normal';fill:#ffffff;stroke-width:2.07888"
         d="m 20.491772,38.629167 v 44.404524 h 6.901905 V 69.895475 64.573319 38.629167 Z m 0,51.306429 V 96.8375 h 6.901905 v -6.901904 z" />
    </g>
    <g
       aria-label="kassert"
       id="text2779"
       style="font-size:31.4254px;line-height:1.25;font-family:'Loved by the King';-inkscape-font-specification:'Loved by the King, Normal';stroke-width:0.785635">
      <path
         d="m 3.2171326,110.2127 h 5.0909148 v 13.01012 h 1.7283966 l 6.190804,-6.72504 h 2.953988 l -6.945014,7.44782 5.719423,6.15938 h 2.042651 v 2.1055 H 16.76148 l -6.725036,-7.10214 H 8.3080474 v 7.10214 H 5.8882916 V 112.3182 h -2.671159 z"
         style="fill:#083a42"
         id="path2803" />
      <path
         d="m 24.712058,117.72337 q 1.351293,-0.78563 3.048264,-1.13131 1.696972,-0.34568 3.331093,-0.34568 1.602695,0 2.608308,0.5028 1.037038,0.50281 1.602695,1.31987 0.597083,0.78563 0.785635,1.82267 0.219978,1.00562 0.219978,2.04265 0,1.19417 -0.06285,2.54546 -0.06285,1.35129 -0.09428,2.70259 0,1.57127 0.188552,2.98541 h 2.105502 v 2.04265 H 34.26538 l -0.282829,-2.35691 h -0.157127 q -0.188552,0.28283 -0.565657,0.72279 -0.377105,0.43995 -1.005613,0.87991 -0.597082,0.40853 -1.476993,0.72278 -0.879912,0.31426 -2.074077,0.31426 -2.325479,0 -3.676772,-1.19417 -1.351292,-1.19416 -1.351292,-3.26824 0,-1.60269 0.691359,-2.67116 0.722784,-1.06846 2.042651,-1.63412 1.319867,-0.56566 3.173965,-0.65993 1.885524,-0.0943 4.211004,0.2514 0.157127,-1.44557 0.03142,-2.38833 -0.09428,-0.97419 -0.502806,-1.53984 -0.377105,-0.56566 -1.099889,-0.78564 -0.691359,-0.2514 -1.728397,-0.2514 -1.414143,0 -2.702584,0.40853 -1.288442,0.3771 -2.294055,0.78563 z m 4.619534,12.66444 q 0.879911,0 1.634121,-0.28283 0.75421,-0.28283 1.319867,-0.72279 0.565657,-0.43995 0.942762,-0.94276 0.377105,-0.53423 0.565657,-1.00561 v -2.19978 q -1.634121,-0.28283 -3.016838,-0.28283 -1.382718,0 -2.388331,0.31426 -1.005613,0.28282 -1.57127,0.91133 -0.565657,0.62851 -0.565657,1.63412 0,1.03704 0.691359,1.82268 0.722784,0.75421 2.38833,0.75421 z"
         style="fill:#3cb1c3"
         id="path2805" />
      <path
         d="m 53.937633,127.96805 q 0,-1.00561 -0.785635,-1.53984 -0.785635,-0.56566 -1.948375,-0.87992 -1.16274,-0.34567 -2.545458,-0.6285 -1.351292,-0.28283 -2.514032,-0.75421 -1.162739,-0.47138 -1.948374,-1.25702 -0.785635,-0.81706 -0.785635,-2.26263 0,-1.19416 0.502806,-2.04265 0.534232,-0.84848 1.382718,-1.38272 0.848485,-0.56565 1.9798,-0.81706 1.131314,-0.28282 2.356905,-0.28282 2.199778,0 3.771048,0.56565 1.602695,0.53423 2.545457,1.13132 l -1.005613,1.9798 q -1.037038,-0.56566 -2.262628,-1.06847 -1.194166,-0.53423 -3.016839,-0.53423 -0.691359,0 -1.382717,0.15713 -0.659934,0.1257 -1.225591,0.40853 -0.534232,0.28283 -0.879911,0.75421 -0.314254,0.43995 -0.314254,1.09989 0,0.81706 0.785635,1.25701 0.785635,0.43996 1.948375,0.75421 1.162739,0.28283 2.514032,0.56566 1.382717,0.2514 2.545457,0.75421 1.16274,0.50281 1.948375,1.35129 0.785635,0.84849 0.785635,2.29406 0,2.16835 -1.728397,3.58249 -1.696972,1.41414 -5.12234,1.41414 -1.037039,0 -2.042651,-0.18855 -1.005613,-0.18855 -1.885524,-0.5028 -0.879912,-0.31426 -1.602696,-0.69136 -0.722784,-0.40853 -1.194165,-0.81706 l 1.257016,-2.04265 q 0.377105,0.3771 1.005613,0.78563 0.628508,0.37711 1.382717,0.69136 0.75421,0.31425 1.602696,0.50281 0.879911,0.18855 1.759822,0.18855 0.848486,0 1.57127,-0.1257 0.75421,-0.15713 1.319867,-0.43996 0.565657,-0.31425 0.879911,-0.78563 0.34568,-0.50281 0.34568,-1.19417 z"
         style="fill:#3cb1c3"
         id="path2807" />
      <path
         d="m 72.792823,127.96805 q 0,-1.00561 -0.785635,-1.53984 -0.785635,-0.56566 -1.948375,-0.87992 -1.16274,-0.34567 -2.545457,-0.6285 -1.351293,-0.28283 -2.514032,-0.75421 -1.16274,-0.47138 -1.948375,-1.25702 -0.785635,-0.81706 -0.785635,-2.26263 0,-1.19416 0.502806,-2.04265 0.534232,-0.84848 1.382718,-1.38272 0.848486,-0.56565 1.9798,-0.81706 1.131314,-0.28282 2.356905,-0.28282 2.199778,0 3.771048,0.56565 1.602695,0.53423 2.545457,1.13132 l -1.005612,1.9798 q -1.037039,-0.56566 -2.262629,-1.06847 -1.194165,-0.53423 -3.016839,-0.53423 -0.691358,0 -1.382717,0.15713 -0.659934,0.1257 -1.225591,0.40853 -0.534232,0.28283 -0.879911,0.75421 -0.314254,0.43995 -0.314254,1.09989 0,0.81706 0.785635,1.25701 0.785635,0.43996 1.948375,0.75421 1.16274,0.28283 2.514032,0.56566 1.382717,0.2514 2.545457,0.75421 1.16274,0.50281 1.948375,1.35129 0.785635,0.84849 0.785635,2.29406 0,2.16835 -1.728397,3.58249 -1.696972,1.41414 -5.12234,1.41414 -1.037038,0 -2.042651,-0.18855 -1.005613,-0.18855 -1.885524,-0.5028 -0.879911,-0.31426 -1.602696,-0.69136 -0.722784,-0.40853 -1.194165,-0.81706 l 1.257016,-2.04265 q 0.377105,0.3771 1.005613,0.78563 0.628508,0.37711 1.382718,0.69136 0.754209,0.31425 1.602695,0.50281 0.879911,0.18855 1.759822,0.18855 0.848486,0 1.57127,-0.1257 0.75421,-0.15713 1.319867,-0.43996 0.565657,-0.31425 0.879911,-0.78563 0.34568,-0.50281 0.34568,-1.19417 z"
         style="fill:#3cb1c3"
         id="path2809" />
      <path
         d="m 94.507728,130.23068 q -0.565657,0.50281 -1.351292,0.94276 -0.75421,0.43996 -1.665546,0.75421 -0.911337,0.31426 -1.916949,0.47138 -0.974188,0.18855 -1.979801,0.18855 -1.885524,0 -3.331092,-0.56565 -1.445568,-0.59709 -2.419756,-1.66555 -0.974187,-1.09989 -1.476994,-2.60831 -0.502806,-1.50842 -0.502806,-3.39394 0,-1.9798 0.534232,-3.51964 0.565657,-1.53985 1.602695,-2.57689 1.037038,-1.03704 2.514032,-1.57127 1.476994,-0.56565 3.299667,-0.56565 1.319867,0 2.608308,0.34567 1.288442,0.34568 2.262629,1.31987 1.005613,0.94276 1.539845,2.63973 0.534231,1.66555 0.377104,4.33671 H 82.440375 q 0,2.82829 1.508419,4.24243 1.539845,1.38272 4.085302,1.38272 0.848486,0 1.665546,-0.18856 0.848486,-0.21997 1.602695,-0.5028 0.75421,-0.28283 1.319867,-0.62851 0.597083,-0.34568 0.911337,-0.62851 z m -6.630759,-12.03593 q -1.037038,0 -1.9798,0.21998 -0.911337,0.21998 -1.634121,0.75421 -0.691359,0.50281 -1.16274,1.35129 -0.439955,0.81706 -0.565657,2.04265 h 9.773299 q -0.157127,-2.07407 -1.351292,-3.20539 -1.16274,-1.16274 -3.079689,-1.16274 z"
         style="fill:#3cb1c3"
         id="path2811" />
      <path
         d="m 98.812962,132.21048 v -2.1055 h 4.242428 v -11.5017 h -4.242428 v -2.1055 h 5.876548 l 0.50281,2.04265 h 0.15713 q 1.06846,-0.97419 2.38833,-1.66555 1.31986,-0.69135 3.14254,-0.69135 1.06846,0 1.69697,0.40853 0.65993,0.40853 1.00561,1.19416 0.3771,0.78564 0.50281,1.91695 0.1257,1.09989 0.1257,2.51403 l -2.19978,0.0314 q 0,-2.01123 -0.40853,-2.95399 -0.3771,-0.94276 -1.41414,-0.94276 -0.97419,0 -1.75983,0.28283 -0.78563,0.28283 -1.38271,0.69136 -0.56566,0.40853 -0.97419,0.81706 -0.40853,0.40853 -0.59708,0.69136 v 9.27049 h 6.03367 v 2.1055 z"
         style="fill:#3cb1c3"
         id="path2813" />
      <path
         d="m 116.56826,116.49778 h 3.73962 v -3.11111 l 2.45118,-0.69136 v 3.80247 h 8.39059 v 2.1055 h -8.39059 v 7.4164 q 0,2.29405 1.09989,3.39394 1.13132,1.09989 3.20539,1.09989 1.41415,0 2.45118,-0.53423 1.06847,-0.53424 1.91695,-1.16274 l 0.81706,1.8541 q -1.09988,0.87991 -2.63973,1.41414 -1.50842,0.53423 -3.11111,0.53423 -1.25702,0 -2.38833,-0.3771 -1.09989,-0.34568 -1.94838,-1.09989 -0.84848,-0.75421 -1.35129,-1.91695 -0.50281,-1.19417 -0.50281,-2.82829 v -7.7935 h -3.73962 z"
         style="fill:#3cb1c3"
         id="path2815" />
    </g>
  </g>
</svg>
